<svg xmlns="http://www.w3.org/2000/svg" xmlns:xlink="http://www.w3.org/1999/xlink" width="65" height="65" viewBox="0 0 65 65">
  <defs>
    <filter id="Exclusion_2" x="0" y="0" width="65" height="65" filterUnits="userSpaceOnUse">
      <feOffset dy="5" input="SourceAlpha"/>
      <feGaussianBlur stdDeviation="5" result="blur"/>
      <feFlood flood-opacity="0.502"/>
      <feComposite operator="in" in2="blur"/>
      <feComposite in="SourceGraphic"/>
    </filter>
  </defs>
  <g transform="matrix(1, 0, 0, 1, 0, 0)" filter="url(#Exclusion_2)">
    <path id="Exclusion_2-2" data-name="Exclusion 2" d="M30,35H5a5.006,5.006,0,0,1-5-5V5A5.006,5.006,0,0,1,5,0H30a5.006,5.006,0,0,1,5,5V30A5.006,5.006,0,0,1,30,35ZM14.931,10.838A7.982,7.982,0,0,0,10.47,12.5a21.2,21.2,0,0,0-2.3,9.246,5.827,5.827,0,0,0,4.879,2.415s.589-.7,1.072-1.311a5.054,5.054,0,0,1-2.8-1.871A11.848,11.848,0,0,0,15.493,22.6a10.158,10.158,0,0,0,2.04.2A11.655,11.655,0,0,0,23.8,20.98l0,.006A5.236,5.236,0,0,1,20.9,22.867c.477.589,1.05,1.273,1.056,1.28a5.952,5.952,0,0,0,4.866-2.383l.011-.016a21.29,21.29,0,0,0-2.3-9.246,7.941,7.941,0,0,0-4.46-1.664h-.018l-.224.256a10.6,10.6,0,0,1,3.983,2.015,13.24,13.24,0,0,0-6.376-1.6,14.058,14.058,0,0,0-6.517,1.6s0,0,0-.006a10.769,10.769,0,0,1,4.187-2.073l-.16-.193Zm5.424,9.422A1.7,1.7,0,0,1,18.724,18.5a1.636,1.636,0,1,1,3.263,0A1.681,1.681,0,0,1,20.355,20.26Zm-5.838,0A1.7,1.7,0,0,1,12.885,18.5a1.636,1.636,0,1,1,3.263,0A1.681,1.681,0,0,1,14.517,20.26Z" transform="translate(15 10)" fill="#fff"/>
  </g>
</svg>
