<svg xmlns="http://www.w3.org/2000/svg" xmlns:xlink="http://www.w3.org/1999/xlink" width="65" height="65" viewBox="0 0 65 65">
  <defs>
    <filter id="Exclusion_3" x="0" y="0" width="65" height="65" filterUnits="userSpaceOnUse">
      <feOffset dy="5" input="SourceAlpha"/>
      <feGaussianBlur stdDeviation="5" result="blur"/>
      <feFlood flood-opacity="0.502"/>
      <feComposite operator="in" in2="blur"/>
      <feComposite in="SourceGraphic"/>
    </filter>
  </defs>
  <g transform="matrix(1, 0, 0, 1, 0, 0)" filter="url(#Exclusion_3)">
    <path id="Exclusion_3-2" data-name="Exclusion 3" d="M30,35H5a5.006,5.006,0,0,1-5-5V5A5.006,5.006,0,0,1,5,0H30a5.006,5.006,0,0,1,5,5V30A5.006,5.006,0,0,1,30,35ZM7.458,20.878a.148.148,0,0,0-.148.148v.1a5.544,5.544,0,0,0,5.529,5.548h8.616c1.615,0,2.539-1.483,3.433-2.917.247-.4.5-.805.766-1.172A5.277,5.277,0,0,1,27.6,21.257a.153.153,0,0,0,.092-.139V20.053a.148.148,0,0,0-.148-.149.146.146,0,0,0-.041.006l-5.029,1.454a.137.137,0,0,0-.069.042,13.411,13.411,0,0,1-1.116,1.1l-.01.009a1.694,1.694,0,0,1-1.108.41H18.349V21.066H19.8a.152.152,0,0,0,.1-.037l.187-.172c.1-.092.193-.179.289-.274l.045-.045c.056-.056.113-.114.171-.178s.139-.144.215-.234c.105-.113.2-.229.31-.353l.027-.032a3.467,3.467,0,0,0,.229-.288c.08-.095.161-.2.236-.3.028-.041.057-.082.087-.124s.059-.082.088-.125c.054-.08.108-.166.155-.249a4.762,4.762,0,0,0,.365-.693c.044-.1.081-.2.116-.3l.018-.052a3.026,3.026,0,0,0,.1-.355,2.763,2.763,0,0,0,.048-.848v-.013a1.479,1.479,0,0,0-.033-.244v-.013a.965.965,0,0,0-.039-.182,4.341,4.341,0,0,0-.277-.82c-.034-.085-.077-.18-.134-.3-.1-.192-.218-.4-.351-.6-.026-.041-.055-.083-.084-.125s-.044-.064-.065-.1c-.084-.13-.178-.254-.27-.375l-.053-.07c-.052-.068-.109-.136-.164-.2l-.1-.121c-.091-.11-.177-.211-.263-.309-.346-.392-.7-.733-.943-.955-.055-.055-.114-.109-.175-.161-.237-.216-.443-.395-.613-.532-.051-.039-.1-.077-.139-.114s-.061-.052-.09-.074l-.13-.1-.071-.054a.171.171,0,0,0-.044-.022l-.194-.054v-1.6a.948.948,0,0,0-.273-.667.918.918,0,0,0-.662-.277.94.94,0,0,0-.933.944v1.081l-.1-.028-.264-.075-.239-.066-.006,0H15.87l-1.817-.492a.1.1,0,0,0-.026,0,.1.1,0,0,0-.081.141l.291.536c.017.042.038.084.06.128.013.026.027.053.04.081.046.093.094.192.141.3.039.084.08.174.129.27l.053.118c.079.176.161.357.243.555l.014.034c.062.148.126.3.181.457.169.438.321.889.452,1.338.033.1.059.2.087.306.011.043.023.086.035.13l.019.082c.06.234.1.445.136.645l0,.014c.026.143.051.279.064.417l0,.027c.018.15.038.305.044.457s.02.3.02.45a4.841,4.841,0,0,1-.113,1.084l-.011.04c-.024.089-.049.181-.078.269s-.057.174-.09.266l-.038.1-.006.017c-.025.067-.05.136-.082.2a10.545,10.545,0,0,1-.593,1.184c-.395.7-.73,1.188-.856,1.366l-.025.036-.06.089a.151.151,0,0,0-.01.157.147.147,0,0,0,.132.081h2.351v1.857H14.1a1.7,1.7,0,0,1-1.516-.941,1.634,1.634,0,0,1-.171-.922.173.173,0,0,0-.044-.132.151.151,0,0,0-.112-.05ZM13.019,11.9a.147.147,0,0,0-.125.069l-4.3,6.727-.071.112a.143.143,0,0,0-.006.148.147.147,0,0,0,.131.077h4.423a.146.146,0,0,0,.122-.065c.062-.094.116-.186.161-.274a7.434,7.434,0,0,0,.846-1.85c.347-1.488-.617-3.894-1.048-4.859A.145.145,0,0,0,13.019,11.9Z" transform="translate(15 10)" fill="#fff"/>
  </g>
</svg>
