<svg xmlns="http://www.w3.org/2000/svg" xmlns:xlink="http://www.w3.org/1999/xlink" width="65" height="65" viewBox="0 0 65 65">
  <defs>
    <filter id="Exclusion_1" x="0" y="0" width="65" height="65" filterUnits="userSpaceOnUse">
      <feOffset dy="5" input="SourceAlpha"/>
      <feGaussianBlur stdDeviation="5" result="blur"/>
      <feFlood flood-opacity="0.502"/>
      <feComposite operator="in" in2="blur"/>
      <feComposite in="SourceGraphic"/>
    </filter>
  </defs>
  <g transform="matrix(1, 0, 0, 1, 0, 0)" filter="url(#Exclusion_1)">
    <path id="Exclusion_1-2" data-name="Exclusion 1" d="M30,35H5a5.006,5.006,0,0,1-5-5V5A5.006,5.006,0,0,1,5,0H30a5.006,5.006,0,0,1,5,5V30A5.006,5.006,0,0,1,30,35ZM8.551,23.126h0a10.447,10.447,0,0,0,16.078-8.8c0-.14,0-.291-.011-.475a7.4,7.4,0,0,0,1.832-1.9,7.274,7.274,0,0,1-2.109.578,3.673,3.673,0,0,0,1.615-2.03,7.342,7.342,0,0,1-2.332.89,3.677,3.677,0,0,0-6.259,3.351A10.47,10.47,0,0,1,9.795,10.9a3.679,3.679,0,0,0,1.137,4.9,3.691,3.691,0,0,1-1.663-.46v.046a3.682,3.682,0,0,0,2.946,3.6,3.684,3.684,0,0,1-1.658.063,3.671,3.671,0,0,0,3.43,2.551,7.326,7.326,0,0,1-4.56,1.573A7.608,7.608,0,0,1,8.551,23.126Z" transform="translate(15 10)" fill="#fff"/>
  </g>
</svg>
